<svg xmlns="http://www.w3.org/2000/svg" xmlns:xlink="http://www.w3.org/1999/xlink" viewBox="0 0 583.57 598"><defs><style>.cls-1{fill:url(#未命名的渐变_77);}.cls-2{fill:#fff;}</style><linearGradient id="未命名的渐变_77" x1="-118.06" y1="47.58" x2="626.3" y2="504.21" gradientUnits="userSpaceOnUse"><stop offset="0" stop-color="#cbdff3"/><stop offset="0.04" stop-color="#c2dbf1"/><stop offset="0.12" stop-color="#a8d1ed"/><stop offset="0.21" stop-color="#7fc1e6"/><stop offset="0.32" stop-color="#46abdd"/><stop offset="0.38" stop-color="#1e9bd6"/><stop offset="0.87" stop-color="#0075bd"/><stop offset="0.99" stop-color="#005b96"/></linearGradient></defs><g id="图层_2" data-name="图层 2"><g id="图层_1-2" data-name="图层 1"><rect class="cls-1" width="583.57" height="598" rx="156.44"/><circle class="cls-2" cx="313.43" cy="142.5" r="51.5"/><path class="cls-2" d="M516.89,326.66c-11.64-13.24-26.57-13.78-41.66-.67-18.51,16.09-36.56,32.69-56.63,50.71-5.72-6.71-10.39-11.95-14.79-17.4-29-35.85-58.7-71.84-85.92-109.31-10.46-14.41-20.3-29.84-34.44-41-20-15.81-46.53-9.55-66.78,9.69-21.72,20.64-44.2,40.48-66,60.37-2.12-1.13-3.33-1.39-3.91-2.14q-17.37-22.78-34.61-45.67c-13.58-18-29.4-22.67-43.09-12.79C54.49,229,53.62,246.6,66.89,264.55q25.31,34.24,50.75,68.38c17.07,22.9,31.94,23.85,52.87,4.36,27.11-25.23,54.62-50,85.24-78,0,10.46-.06,16.4-.08,22.34-.24,66.67-.57,133.35-.65,200,0,22.18,11.85,34.12,31.51,32.56,17-1.35,25.46-12.7,25.58-35.47,0-1.23,0-2.45,0-3.68a56.36,56.36,0,0,0,1.36-12.35q.13-18.29.21-36.56t.12-36.55c0-12,0-24,.39-35.93,0-1.19-.37-16.67.72-16.67,26.45,32.81,51.58,65.75,76.35,96.25,13,16,28.53,18,43.94,4.52,26.28-23,52.08-46.61,77.71-70.35C526.49,354.87,527.62,338.88,516.89,326.66Z"/></g></g></svg>