<svg xmlns="http://www.w3.org/2000/svg" viewBox="0 0 320.25 241.22"><defs><style>.cls-1{fill:#fff;}</style></defs><g id="图层_2" data-name="图层 2"><g id="图层_1-2" data-name="图层 1"><g id="图层_2-2" data-name="图层 2"><g id="图层_1-2-2" data-name="图层 1-2"><path class="cls-1" d="M120.32,185.54a62.29,62.29,0,0,1,0-124.58h36.27a62.29,62.29,0,0,1,0,124.58Zm0-101.56a39.27,39.27,0,0,0,0,78.54h36.27a39.27,39.27,0,1,0,0-78.54H120.32Z"/><path class="cls-1" d="M160,185.54A62.29,62.29,0,0,1,160,61h36.27a62.29,62.29,0,0,1,0,124.58h0ZM160,84a39.27,39.27,0,0,0,0,78.54h36.27a39.27,39.27,0,0,0,0-78.54H160Z"/><path class="cls-1" d="M199.94,241.18a11.51,11.51,0,0,1,0-23,97.3,97.3,0,1,0,0-194.6h0a11.51,11.51,0,1,1-1-23q.48,0,1,0a120.32,120.32,0,0,1,0,240.64Z"/><path class="cls-1" d="M120.32,240.65A120.32,120.32,0,0,1,120.32,0a11.51,11.51,0,0,1,1,23h-1a97.3,97.3,0,0,0,0,194.6,11.51,11.51,0,1,1,1,23h-1Z"/></g></g></g></g></svg>