<?xml version="1.0" standalone="no"?><!DOCTYPE svg PUBLIC "-//W3C//DTD SVG 1.1//EN" "http://www.w3.org/Graphics/SVG/1.1/DTD/svg11.dtd"><svg t="1710241411015" class="icon" viewBox="0 0 1024 1024" version="1.1" xmlns="http://www.w3.org/2000/svg" p-id="5509" xmlns:xlink="http://www.w3.org/1999/xlink" width="200" height="200"><path d="M1024 1024H384l173.056-832H1024V1024zM460.8 960h499.2V256h-352.256L460.8 960zM140.8 345.6h128v121.856h-128zM307.2 345.6h128v121.856H307.2z" p-id="5510" fill="#007cc2"></path><path d="M466.944 0H0v832h640L466.944 0z m0 499.2H307.2V640h-38.4V492.544H108.544V307.2h159.744V230.4H307.2v82.944h159.744v185.856z" p-id="5511" fill="#007cc2"></path><path d="M806.4 697.344h-121.344l-32.256 102.4h-44.544L716.8 473.6h51.2l108.544 326.656h-45.056l-25.088-102.912zM793.6 665.6l-12.8-51.2c-12.8-38.4-25.6-70.656-38.4-108.544-12.8 38.4-19.456 76.8-31.744 108.544l-19.456 51.2h102.4z" p-id="5512" fill="#007cc2"></path></svg>